With: Alicia Silverstone, Krysten Ritter and Sigourney Weaver

Stacey (Krysten Ritter) en Goody (Alicia Silverstone) leiden een uitermate goed leven in de New Yorkse nachten als twee knappe, jonge vampieren. Hun leven raakt echter gecompliceerd wanneer ze verliefd worden op twee mannen en worden opgejaagd door vampierenjagers. Nu zullen ze een keuze moeten maken die hun onsterfelijkheid en misschien nog wel veel meer in gevaar kan brengen.

Two female vampires in modern-day New York City are faced with daunting romantic possibilities. 
 
http://www.imdb.com/title/tt1545106	

------------------------ Dutch Friends ------------------------
---------------------------------------------------------------
- Bezoek ook eens mijn vrienden op:  http://www.Film-Test.nl --
----- voor mijn Nederlandse Sync. ondertitels ---- en meer ----
------- http://www.Film-Test.nl ---- Over Films en meer -------
---------------------------------------------------------------

General:

Complete name                    : VampsVamps.avi
Format                           : AVI
Format/Info                      : Audio Video Interleave
File size                        : 1.66 GiB
Duration                         : 1h 29mn
Overall bit rate                 : 2 664 Kbps

Video:

Format                           : MPEG-4 Visual
Format profile                   : Simple@L3
Format settings, BVOP            : No
Format settings, QPel            : No
Format settings, GMC             : No warppoints
Format settings, Matrix          : Default (H.263)
Codec ID                         : XVID
Codec ID/Hint                    : XviD
Duration                         : 1h 29mn
Bit rate                         : 2 206 Kbps
Width                            : 652 pixels
Height                           : 352 pixels
Display aspect ratio             : 1.852
Frame rate                       : 25.000 fps
Color space                      : YUV
Chroma subsampling               : 4:2:0
Bit depth                        : 8 bits
Scan type                        : Progressive
Compression mode                 : Lossy
Bits/(Pixel*Frame)               : 0.384
Stream size                      : 1.37 GiB (83%)
Writing library                  : XviD 1.1.2 (UTC 2006-11-01)

Audio:

Format                           : AC-3
Format/Info                      : Audio Coding 3
Mode extension                   : CM (complete main)
Codec ID                         : 2000
Duration                         : 1h 29mn
Bit rate mode                    : Constant
Bit rate                         : 448 Kbps
Channel(s)                       : 6 channels
Channel positions                : Front: L C R, Side: L R, LFE
Sampling rate                    : 48.0 KHz
Bit depth                        : 16 bits
Compression mode                 : Lossy
Stream size                      : 286 MiB (17%)
Alignment                        : Aligned on interleaves
Interleave, duration             : 32 ms (0.80 video frame)
Interleave, preload duration     : 1536 ms